<svg xmlns="http://www.w3.org/2000/svg" viewBox="0 0 320 300" fill="none">
  <defs>
    <linearGradient id="seat" x1="0" y1="0" x2="0" y2="1">
      <stop offset="0" stop-color="#e9dcc6"/><stop offset="1" stop-color="#d3c1a2"/>
    </linearGradient>
  </defs>
  <!-- legs -->
  <g stroke="#4a3f31" stroke-width="7" stroke-linecap="round">
    <line x1="80" y1="210" x2="60" y2="280"/>
    <line x1="240" y1="210" x2="262" y2="280"/>
    <line x1="110" y1="215" x2="120" y2="278"/>
    <line x1="210" y1="215" x2="205" y2="278"/>
  </g>
  <!-- backrest -->
  <path d="M70 200 C60 120 80 70 160 65 C240 70 260 120 250 200 Z" fill="url(#seat)"/>
  <path d="M70 200 C60 120 80 70 160 65 C240 70 260 120 250 200" stroke="#b06a4f" stroke-width="3" fill="none"/>
  <!-- seat cushion -->
  <rect x="74" y="185" width="172" height="48" rx="20" fill="#cbb893"/>
  <!-- arm -->
  <path d="M70 200 q-22 0 -22 -45 q0 -28 18 -30" stroke="#4a3f31" stroke-width="9" fill="none" stroke-linecap="round"/>
  <path d="M250 200 q22 0 22 -45 q0 -28 -18 -30" stroke="#4a3f31" stroke-width="9" fill="none" stroke-linecap="round"/>
</svg>
