<svg xmlns="http://www.w3.org/2000/svg" viewBox="0 0 240 360" fill="none">
  <defs>
    <linearGradient id="pot" x1="0" y1="0" x2="0" y2="1">
      <stop offset="0" stop-color="#c07a5c"/><stop offset="1" stop-color="#8c4f39"/>
    </linearGradient>
  </defs>
  <!-- leaves -->
  <g stroke="#5f6a4a" stroke-width="6" stroke-linecap="round">
    <path d="M120 250 C60 200 50 110 90 60" fill="#6f7257"/>
    <path d="M120 250 C180 200 190 110 150 60" fill="#7c8161"/>
    <path d="M120 250 C100 180 110 90 120 40" fill="#697049"/>
    <path d="M120 250 C70 220 40 160 55 110" fill="#7c8161"/>
    <path d="M120 250 C170 220 200 160 185 110" fill="#6f7257"/>
  </g>
  <g fill="#5f6a4a" opacity="0.85">
    <path d="M120 250 C60 200 50 110 90 60 C70 130 90 200 120 250Z"/>
    <path d="M120 250 C180 200 190 110 150 60 C170 130 150 200 120 250Z"/>
    <path d="M120 250 C100 180 110 90 120 40 C120 130 120 200 120 250Z"/>
  </g>
  <!-- pot -->
  <path d="M78 250 h84 l-12 95 a8 8 0 0 1 -8 7 h-36 a8 8 0 0 1 -8 -7 Z" fill="url(#pot)"/>
  <rect x="72" y="244" width="96" height="16" rx="4" fill="#a3654a"/>
</svg>
